<svg version="1.2" xmlns="http://www.w3.org/2000/svg" viewBox="0 0 1552 221" width="1552" height="221">
	<title>blackrock-logo-nav-svg</title>
	<style>
		.s0 { fill: #000000 } 
	</style>
	<g id="Nav-IRELAND">
		<g id="BlackRock_Wordmark_Blk_RGB">
			<path id="Shape" fill-rule="evenodd" class="s0" d="m197.4 0h49.2v216.1h-49.2zm867.4 220.3c-47.3 0-87.8-32.8-87.8-85 0-51.9 40.2-84.6 87.8-84.6 47.4 0 87.8 32.4 87.8 84.6 0 51.9-40.4 85-87.8 85zm39.3-84.8c0-23.5-17.7-42.5-39.6-42.5-21.8 0-39.5 19-39.5 42.5 0 23.5 17.7 42.4 39.5 42.4 21.9 0 39.6-18.9 39.6-42.4zm-1002.2 80.9h-101.9v-216.1h97.7c50.9-0.3 73.7 25.8 73.7 57.3 0 18-7.5 33.3-28.8 45 22.5 8.4 35.1 27 35.1 51.3 0 36.6-24.6 62.2-75.8 62.5zm-9.9-174.4h-40.8v45h40.8c18 0 27.2-8.4 27.2-23.1 0-14.7-10.7-21.9-27.2-21.9zm3.6 85.2h-44.4v46.8h44.4c18.3 0 28.1-9.3 28.1-23.4 0-14.4-10.4-23.4-28.1-23.4zm469.5-11.4c-7.5-15.6-19.5-22.8-35.4-22.8-20.4 0-37.1 15.9-37.1 42.3 0 26.4 14.6 42.6 37.4 42.6 17.7 0 28.8-8.4 36-21.6l39.5 20.4c-13.8 29.7-42.8 43.6-77.3 43.6-49.1 0-84.5-30.4-84.5-85 0-56.1 40.2-84.3 85.1-84.3 38.1 0 63.2 15.6 76.7 43.8zm724.2 0c-7.5-15.6-19.5-22.8-35.4-22.8-20.3 0-37.1 15.9-37.1 42.3 0 26.4 14.7 42.6 37.4 42.6 17.7 0 28.8-8.4 36-21.6l39.5 20.4c-13.7 29.7-42.8 43.5-77.3 43.5-49.1 0-84.5-30.3-84.5-84.9 0-56.1 40.2-84.3 85.1-84.3 38.1 0 63.3 15.6 76.7 43.8zm-371.5 100.2l-41-72.6h-31.5v72.6h-50.6v-216h91.4c49.4 0 83.8 23.7 83.8 70.2 0 29.7-14.6 50.7-40.7 63.6l47.3 82.2zm-72.2-115.5h37.8c23.4 0 34.7-13.2 34.7-28.8 0-18.6-10.7-28.8-34.7-28.8h-37.8zm-438.9 117.9c-13.5 0-27.3-4.2-33.6-20.1-10.4 12-30.5 21.3-53 21.3-32.9 0-54.2-16.8-54.2-48.9 0-31.2 25.4-50.1 64.7-50.1 15.6 0 28.5 2.4 38.6 4.8v-5.1c0-17.7-10.1-28.5-31.7-28.5-14.1 0-28.5 6-39.3 15.6l-27.2-30.6c16.2-14.4 41.9-25.5 72.2-25.5 46.4 0 74.6 22.2 74.6 64.2v56.1c0 5.7 3.3 9 9.6 9 3.3 0 6.3-0.6 8.4-1.2v33.9c-9 3.9-19.8 5.4-29.1 5.1zm-37.2-66.3c-7.7-1.8-17-3.6-27.5-3.6-17.1 0-25.5 8.4-25.5 19.8 0 10.8 7.5 18.6 22.8 18.6 16.2 0 30.2-9.6 30.2-24.3zm1135.9 64.2h-55.4l-36.6-63.9-23.4 24.9v39h-48.8v-216.1h48.8v119.8l57.3-63.6h54.5l-54.2 59.1 57.8 100.5zm-723.6 0h-55.4l-36.6-63.9-23.3 24.9v39h-48.9v-216.1h48.9v119.8l56.6-63.6h55.1l-54.2 59.1 57.8 100.5zm753.5 1.5c-8.9 0-16.1-7.1-16.1-15.9 0-8.8 7.2-15.9 16.1-15.9 9 0 16.2 7.1 16.2 15.9 0 8.8-7.2 15.9-16.2 15.9zm13.5-15.9c0-7.6-6-13.8-13.5-13.8-7.4 0-13.5 6.2-13.5 13.8 0 7.6 6.1 13.8 13.5 13.8 7.5 0 13.5-6.2 13.5-13.8zm-19.8-8.1h6.6c3.9 0 6 2.1 6 5.1 0 2.7-1.2 4.2-3.3 5.1l3 5.7h-3l-2.7-5.1h-3.6v5.1h-3zm3 8.1h3.3c2.1 0 3.3-0.6 3.3-2.7 0-1.8-0.9-2.7-3-2.7h-3.6z"/>
		</g>
	</g>
</svg>